<svg xmlns="http://www.w3.org/2000/svg" width="28" height="285" viewBox="0 0 28 285">
    <g fill="none" fill-rule="evenodd">
        <g stroke="#989898" stroke-linecap="square" stroke-width="2">
            <path d="M3 3l12 12M15 3L3 15"/>
        </g>
        <g fill="#989898" fill-rule="nonzero">
            <path d="M2 45h16v2H2z"/>
            <path d="M11 38v16H9V38z"/>
        </g>
        <path fill="#D8D8D8" fill-rule="nonzero" stroke="#979797" d="M2.5 83.5h15v1h-15z"/>
        <path fill="#979797" fill-rule="nonzero" d="M19.94 122a8.994 8.994 0 0 0-7.94-7.94V112h-2v2.06A8.994 8.994 0 0 0 2.06 122H0v2h2.06a8.994 8.994 0 0 0 7.94 7.94V134h2v-2.06a8.994 8.994 0 0 0 7.94-7.94H22v-2h-2.06zM11 130c-3.87 0-7-3.13-7-7s3.13-7 7-7 7 3.13 7 7-3.13 7-7 7z"/>
        <g fill="#979797" fill-rule="nonzero" transform="translate(0 152)">
            <path d="M19.94 10A8.994 8.994 0 0 0 12 2.06V0h-2v2.06A8.994 8.994 0 0 0 2.06 10H0v2h2.06A8.994 8.994 0 0 0 10 19.94V22h2v-2.06A8.994 8.994 0 0 0 19.94 12H22v-2h-2.06zM11 18c-3.87 0-7-3.13-7-7s3.13-7 7-7 7 3.13 7 7-3.13 7-7 7z"/>
            <circle cx="11" cy="11" r="5"/>
        </g>
        <path fill="#9B9B9B" fill-rule="nonzero" d="M21.71 203.29l-9-9a.996.996 0 0 0-1.41 0l-9 9a.996.996 0 0 0 0 1.41l9 9c.39.39 1.02.39 1.41 0l9-9a.996.996 0 0 0 0-1.41zM14 206.5V204h-4v3H8v-4c0-.55.45-1 1-1h5v-2.5l3.5 3.5-3.5 3.5z"/>
        <path fill-rule="nonzero" stroke="#979797" stroke-linecap="round" stroke-width="2" d="M3 238l11 8 11-8"/>
        <g fill="#989898" fill-rule="nonzero">
            <path d="M18 269v5h-2v-5h-5v-2h7v2zM0 269v5h2v-5h5v-2H0v2zM16 285h-5v-2h5v-5h2v7h-2zM2 285h5v-2H2v-5H0v7h2z"/>
        </g>
    </g>
</svg>
